<svg xmlns="http://www.w3.org/2000/svg" viewBox="0 0 421.8 415.4"><defs><style>.cls-1{fill:#414141;}</style></defs><title>Asset 1</title><g id="Layer_2" data-name="Layer 2"><g id="Layer_1_Image" data-name="Layer 1 Image"><path class="cls-1" d="M0,415.09q0-57.5,0-115a46.36,46.36,0,0,0,.81-6.17Q.87,150.17.85,6.43c0-2.07,0-4.15,0-6.2H38.73V29.72h39V.36h37.82V29.62h38.93V.23h37.75V29.72h38.71c0-8.61,0-16.91,0-25.21,0-2.2-.24-4.52,3.09-4.52,11.3,0,22.59,0,34.62,0V29.8h39.06c0-2,0-3.81,0-5.59.06-6.83,0-13.67.32-20.49.06-1.28,1.72-3.52,2.68-3.54C322.13-.07,333.57,0,345.63,0V29.71h38.93V.27H421.8V415H307.9V408.6q0-105.5,0-211c0-3,0-6-.1-9-2.19-59.1-58.45-102.7-116.21-90.07-45.35,9.91-76.4,48.61-76.41,95.29q0,107,0,214c0,2.42,0,4.85,0,7.33-1.75.1-2.73.21-3.72.21q-34.5,0-69,0C28.31,415.35,14.15,415.19,0,415.09Z"/><path class="cls-1" d="M282.64,298.06l-3.39,20.87c-6.6-6.69-5.05-13.56-5.46-20.35h-14c-.82,6.5,1.42,13.61-4.14,18.88-5.31-5.22-3.35-12.22-3.95-18.94H237.63c-.77,6.35,1.38,13.64-4,19-5.33-5.34-3.32-12.41-4.08-19.08H216.35L213,318.8c-6.74-6.53-4.81-13.52-5.44-20.24H194.19l-3.31,20.5c-6.65-6.68-4.8-13.85-5.48-20.61H172.19l-3.34,20.35c-6.83-6.58-5-13.75-5.47-20.34H150.11l-3.41,20.6c-6.43-6.82-5.1-13.74-5.44-20.89h-6c-1.83,0-3.86.45-5.45-.18-2.1-.83-3.87-2.53-5.78-3.85,2-1.21,3.9-3.11,6-3.49,3.39-.59,7-.16,10.91-.16V276.13c-2.92,0-5.73.15-8.5-.05a20.1,20.1,0,0,1-5.77-1.23c-1.07-.41-2.47-1.62-2.51-2.54s1.34-2.35,2.35-2.61a51.46,51.46,0,0,1,8.26-1.23c2-.18,3.93,0,6.26,0V253.82c-3.77,0-7.6.37-11.3-.15-2-.28-3.83-2.07-5.74-3.18,1.67-1.34,3.17-3.47,5-3.85,3.83-.79,7.86-.64,12.09-.9V231.89c-3.23,0-6.58.48-9.7-.15-2.61-.53-5-2.37-7.42-3.63,2.44-1.35,4.74-3.29,7.35-3.88,3-.68,6.23-.16,9.71-.16V209.81c-2.76,0-5.37,0-8,0-1.49,0-3.15.21-4.43-.34-1.7-.74-3.11-2.14-4.65-3.26,1.55-1.28,3-3.36,4.69-3.68,3.87-.71,7.9-.55,12.29-.77v-14c-2.74,0-5.51,0-8.27,0-1.48,0-3.15.17-4.38-.45-1.44-.73-2.49-2.23-3.71-3.39,1.22-1.16,2.32-3.09,3.7-3.32,4-.68,8.2-.68,12.7-1V165.75H129.12c1.32-7.12,1.32-7.12,12.26-8.33,0-2.95,0-6,0-9.11,0-8.36.35-9.28,6.81-15.32,4.06,5.82,9.78,1.44,15,3.12V120.45c6.07-5.36,13.32-8,21.94-6.47l-1-1.75,8.54-6,1.06,7.25h13.67l.67-7.8h7.06l.63,7.79h13.67l.74-6c3.39,1.15,8-.2,7.49,6.18,7.31-.47,14.24.2,19.86,5a7.08,7.08,0,0,1,2,4.51c.28,4,.09,7.95.09,11.81,7.71,2,13.27,1.16,14.76-2,10.57,5.49,6.52,15.61,7.49,24.64,4.89.91,12.44-2,12,7.84H282V180c2.89,0,5.83-.15,8.74.05a17.21,17.21,0,0,1,5.72,1.29,4.18,4.18,0,0,1,1.95,3c.08.7-1.16,2.06-2,2.25a71.53,71.53,0,0,1-8.73,1.24c-1.79.17-3.6,0-5.74,0V202c2.63,0,5.08,0,7.53,0,1.5,0,3.22-.32,4.43.29,1.89,1,3.43,2.59,5.11,3.93-1.85,1.18-3.59,3.07-5.57,3.38-3.57.55-7.28.16-11.38.16V224c1.63,0,3.39,0,5.15,0s3.84-.41,5.45.2c2.27.86,4.25,2.5,6.35,3.8-2.26,1.28-4.39,3.19-6.8,3.67-3.17.64-6.57.16-10.23.16V246c2.87,0,5.66-.18,8.43.06a21.66,21.66,0,0,1,6.19,1.44c1,.4,2.27,1.81,2.21,2.69a3.77,3.77,0,0,1-2.41,2.59,62.83,62.83,0,0,1-8.78,1.24c-1.78.17-3.6,0-5.68,0v14.32c3.15,0,6.11-.17,9,.06a17.84,17.84,0,0,1,6.22,1.41c2.77,1.33,2.75,3.55-.08,4.61a37,37,0,0,1-8.68,1.59,58.75,58.75,0,0,1-6.38,0v14.06c1.61.09,3.35.22,5.1.28,2.16.06,4.48-.41,6.45.22s3.61,2.34,5.39,3.58c-1.77,1.27-3.42,3.32-5.35,3.63C290,298.47,286.1,298.06,282.64,298.06Zm-75.42-65.75H193.76v13.56h13.46Zm0-110.19H193.74v13.25h13.51Zm-13.44,21.93v13.47h13.35V144.05Zm-.1,35.47h13.56V166.26H193.71Zm13.6,22.24V188.23H193.76v13.53Zm0,52.59H193.76v13.51H207.3ZM259.81,268h13.85V254.26H259.81Zm-21.92-88.51h13.59V166.2H237.88ZM185,223.75V210.23H171.72v13.52Zm52.82-.13h13.6V210.38h-13.6Zm35.72.12v-13.4H260.07v13.4Zm-124,8.49v13.55H163V232.23Zm35.52,0H171.72V245.8h13.44ZM163,210.32H149.66v13.39H163Zm88.41,35.45v-13.4H238.13v13.4Zm8.66-13.49v13.36h13.45V232.27Zm-110.46,22V268h13.3V254.25Zm22-.11v13.73H185V254.14Zm79.89.24H238v13.47h13.57ZM163,289.94V276.53H149.56v13.42Zm88.51,0V276.52H238v13.42Zm8.62-.09h13.47V276.49H260.09Zm-75-154.35V122.14H171.7v13.36Zm-.12,22V144.14H171.65v13.38ZM216,144.12v13.69c3.86,0,7.34.19,10.77-.12,1-.09,2.66-1.5,2.74-2.42.32-3.59.13-7.22.13-11.15ZM238,157.43h13.53v-13.3H238ZM171.64,179.6H185.1V166.15H171.64Zm44.22-.05H229.4V166.2H215.86Zm57.64.08V166.3H260.12v13.33Zm-13.4,8.54v13.37h13.42V188.17Zm-44.24,13.5h13.43V188.21H215.86Zm22-.16h13.58V188.26H237.7c0,3.25,0,6.2,0,9.15C237.72,198.71,237.83,200,237.9,201.51Zm-22-66.19c16.45.72,13.85,2.58,13.55-12.51,0-.14-.17-.27-.5-.76h-13ZM229.26,290V276.45h-13.2V290Zm8.63-154.33c4,0,7.49.18,10.91-.11,1-.09,2.76-1.42,2.84-2.3.32-3.7.14-7.44.14-11.1H237.88ZM163,157.56V144.2H149.57v13.35Zm66.36,52.81H215.95v13.4h13.37Zm44.29-52.92V144.12H260v13.33ZM163,179.72V166.23H149.67v13.49Zm52.84,52.45V245.7h13.35V232.17Zm-30.8-30.48V188.19H171.73v13.51ZM163,188.33h-13.4v13.38H163Zm44.23,21.89h-13.4v13.55h13.4Zm22.14,44.27H216V268h13.37Zm-57.57,21.89V290H185V276.39Zm22.09,13.41h13.3V276.39h-13.3Z"/></g></g></svg>